<?xml version="1.0" encoding="utf-8"?>
<!-- Generator: Adobe Illustrator 25.2.0, SVG Export Plug-In . SVG Version: 6.00 Build 0)  -->
<svg version="1.1" id="Layer_1" xmlns="http://www.w3.org/2000/svg" xmlns:xlink="http://www.w3.org/1999/xlink" x="0px" y="0px"
	 viewBox="0 0 119.09 195.43" style="enable-background:new 0 0 119.09 195.43;" xml:space="preserve">
<style type="text/css">
	.st0{opacity:0.1;}
	.st1{fill:#95C2F9;}
	.st2{fill:#FFFFFF;}
</style>
<g class="st0">
	<path class="st1" d="M1.72,128.94h21.84c0.6,0,1.16-0.31,1.47-0.83l6.94-11.5c0.46-0.76,1.43-1.05,2.23-0.65l27.56,13.62
		c0.59,0.29,0.96,0.89,0.96,1.54v51.26c0,0.61,0.32,1.17,0.84,1.48l19.07,11.33c1.14,0.68,2.59-0.14,2.59-1.48V118.3
		c0-0.65-0.37-1.25-0.95-1.54L25.48,87.53c-0.8-0.4-1.77-0.11-2.24,0.65l-23,38.15C-0.44,127.48,0.38,128.94,1.72,128.94z"/>
	<path class="st1" d="M57.12,33.02v17.7c0,1.08,0.55,2.07,1.41,2.56l23.14,13.08c1.72,0.97,3.76-0.42,3.76-2.56V46.01
		c0-1.08-0.55-2.08-1.42-2.57L60.87,30.45C59.15,29.48,57.12,30.87,57.12,33.02z"/>
	<g>
		<path class="st1" d="M118.87,121.56L106.34,92.2c-0.25-0.58-0.69-1.06-1.26-1.34L48.13,62.35c-0.9-0.45-1.48-1.38-1.48-2.39v-10.4
			L29.82,77.28l57.67,28.3c0.58,0.28,1.03,0.76,1.28,1.35l7.09,16.71c0.42,0.99,1.39,1.63,2.46,1.63h18.09
			C118.33,125.28,119.62,123.32,118.87,121.56z"/>
		<path class="st2" d="M46.66,13.32c0-0.93-0.48-1.78-1.27-2.27L28.2,0.4c-1.78-1.1-4.08,0.18-4.08,2.27v70.15
			c0,1.02,0.58,1.95,1.49,2.4l4.2,2.06l16.84-27.72V13.32z"/>
		<path class="st1" d="M46.66,13.32c0-0.93-0.48-1.78-1.27-2.27L28.2,0.4c-1.78-1.1-4.08,0.18-4.08,2.27v70.15
			c0,1.02,0.58,1.95,1.49,2.4l4.2,2.06l16.84-27.72V13.32z"/>
	</g>
</g>
</svg>
