<?xml version="1.0" encoding="utf-8"?>
<!-- Generator: Adobe Illustrator 25.2.0, SVG Export Plug-In . SVG Version: 6.00 Build 0)  -->
<svg version="1.1" id="Layer_1" xmlns="http://www.w3.org/2000/svg" xmlns:xlink="http://www.w3.org/1999/xlink" x="0px" y="0px"
	 viewBox="0 0 34.36 56.39" style="enable-background:new 0 0 34.36 56.39;" xml:space="preserve">
<style type="text/css">
	.st0{fill:#D7D7D7;}
</style>
<g>
	<g>
		<path class="st0" d="M7.93,0.12l4.97,3.07c0.23,0.14,0.37,0.39,0.37,0.66v13.48c0,0.29,0.16,0.56,0.43,0.69l16.45,8.24
			c0.16,0.08,0.29,0.22,0.36,0.39l3.79,9.02c0.22,0.51-0.16,1.07-0.71,1.07h-5.23c-0.31,0-0.59-0.19-0.71-0.47l-2.22-5.37
			c-0.07-0.17-0.2-0.31-0.37-0.39L7.18,21.73c-0.26-0.13-0.43-0.4-0.43-0.69V0.77C6.75,0.17,7.42-0.2,7.93,0.12z"/>
		<path class="st0" d="M0.5,36.76h6.31c0.17,0,0.33-0.09,0.42-0.24l1.79-2.91c0.13-0.22,0.41-0.3,0.64-0.19l7.96,3.94
			c0.17,0.08,0.28,0.26,0.28,0.44v14.81c0,0.17,0.09,0.34,0.24,0.43l5.51,3.27c0.33,0.2,0.75-0.04,0.75-0.43V34.1
			c0-0.19-0.11-0.36-0.28-0.44L7.14,25.22C6.91,25.1,6.63,25.18,6.5,25.4L0.07,36.01C-0.13,36.34,0.11,36.76,0.5,36.76z"/>
		<path class="st0" d="M16.44,10.26v5.11c0,0.31,0.18,0.6,0.45,0.74l6.37,3.21c0.55,0.28,1.21-0.12,1.21-0.74v-5.14
			c0-0.31-0.18-0.6-0.46-0.74l-6.37-3.18C17.09,9.24,16.44,9.64,16.44,10.26z"/>
	</g>
</g>
</svg>
