<?xml version="1.0" encoding="utf-8"?>
<!-- Generator: Adobe Illustrator 25.2.0, SVG Export Plug-In . SVG Version: 6.00 Build 0)  -->
<svg version="1.1" id="Layer_1" xmlns="http://www.w3.org/2000/svg" xmlns:xlink="http://www.w3.org/1999/xlink" x="0px" y="0px"
	 viewBox="0 0 57.05 16.39" style="enable-background:new 0 0 57.05 16.39;" xml:space="preserve">
<style type="text/css">
	.st0{fill:#0A0A0A;}
</style>
<g>
	<path class="st0" d="M3.08,4.97c0-0.48-0.06-0.82-0.18-1.02c-0.12-0.2-0.33-0.3-0.64-0.3c-0.09,0-0.19,0-0.29,0.02
		c-0.1,0.01-0.2,0.02-0.29,0.04v4.06H0.19V2.68c0.13-0.03,0.27-0.07,0.44-0.1c0.17-0.04,0.35-0.07,0.54-0.1
		C1.37,2.44,1.56,2.42,1.76,2.4c0.2-0.02,0.4-0.02,0.59-0.02c0.38,0,0.69,0.05,0.92,0.14c0.24,0.1,0.43,0.21,0.58,0.35
		C4.07,2.72,4.32,2.6,4.6,2.51c0.28-0.09,0.53-0.13,0.76-0.13c0.42,0,0.76,0.06,1.04,0.17c0.27,0.12,0.48,0.28,0.64,0.5
		C7.2,3.26,7.31,3.52,7.37,3.81C7.43,4.1,7.46,4.43,7.46,4.79v2.97H5.97V4.97c0-0.48-0.06-0.82-0.19-1.02
		c-0.12-0.2-0.33-0.3-0.63-0.3c-0.08,0-0.19,0.02-0.33,0.06S4.55,3.8,4.46,3.86c0.05,0.15,0.08,0.32,0.09,0.49
		C4.56,4.51,4.57,4.7,4.57,4.89v2.87H3.08V4.97z"/>
	<path class="st0" d="M10.7,2.36c0.44,0,0.81,0.05,1.1,0.15c0.29,0.1,0.53,0.24,0.7,0.43c0.18,0.19,0.3,0.41,0.38,0.68
		c0.07,0.27,0.11,0.56,0.11,0.89v3.1c-0.21,0.05-0.51,0.1-0.89,0.17c-0.38,0.06-0.84,0.1-1.38,0.1c-0.34,0-0.65-0.03-0.93-0.09
		C9.52,7.72,9.28,7.62,9.08,7.48c-0.2-0.14-0.35-0.31-0.46-0.53C8.51,6.73,8.46,6.46,8.46,6.14c0-0.31,0.06-0.57,0.19-0.78
		c0.12-0.21,0.29-0.38,0.5-0.51c0.21-0.13,0.44-0.22,0.71-0.27s0.54-0.08,0.83-0.08c0.19,0,0.36,0.01,0.51,0.02s0.27,0.04,0.37,0.07
		V4.44c0-0.25-0.08-0.46-0.23-0.61s-0.42-0.23-0.8-0.23c-0.25,0-0.5,0.02-0.75,0.05C9.53,3.69,9.32,3.74,9.14,3.81l-0.19-1.2
		c0.09-0.03,0.2-0.05,0.33-0.08C9.41,2.5,9.55,2.47,9.7,2.44c0.15-0.02,0.32-0.04,0.49-0.06S10.53,2.36,10.7,2.36z M10.82,6.72
		c0.15,0,0.29,0,0.42-0.01s0.24-0.02,0.32-0.03V5.55c-0.06-0.01-0.15-0.03-0.27-0.04s-0.23-0.02-0.33-0.02
		c-0.14,0-0.27,0.01-0.39,0.02s-0.23,0.05-0.33,0.09c-0.09,0.05-0.17,0.11-0.22,0.19C9.97,5.88,9.94,5.98,9.94,6.1
		c0,0.23,0.08,0.4,0.24,0.49C10.33,6.67,10.55,6.72,10.82,6.72z"/>
	<path class="st0" d="M15.97,0.98c0,0.27-0.09,0.49-0.26,0.65c-0.18,0.16-0.39,0.23-0.62,0.23c-0.24,0-0.45-0.08-0.62-0.23
		c-0.18-0.16-0.27-0.37-0.27-0.65s0.09-0.49,0.27-0.64c0.18-0.16,0.38-0.24,0.62-0.24c0.24,0,0.45,0.08,0.62,0.24
		C15.88,0.49,15.97,0.71,15.97,0.98z M15.83,7.76h-1.49V2.5h1.49V7.76z"/>
	<path class="st0" d="M18.72,4.39c0.15-0.16,0.3-0.32,0.45-0.5c0.16-0.17,0.31-0.34,0.45-0.51c0.15-0.17,0.29-0.33,0.42-0.48
		s0.24-0.29,0.33-0.4h1.77c-0.35,0.41-0.7,0.79-1.04,1.16s-0.71,0.75-1.1,1.14c0.2,0.18,0.41,0.4,0.62,0.65
		c0.21,0.25,0.42,0.51,0.62,0.78c0.2,0.27,0.38,0.53,0.55,0.8c0.17,0.27,0.31,0.51,0.42,0.73h-1.71c-0.11-0.17-0.23-0.37-0.36-0.58
		c-0.14-0.21-0.28-0.42-0.43-0.63c-0.15-0.21-0.31-0.41-0.48-0.61c-0.17-0.19-0.34-0.36-0.5-0.49v2.31h-1.49V0.24L18.72,0V4.39z"/>
	<path class="st0" d="M23.98,1.03c0,0.15-0.05,0.28-0.14,0.37c-0.09,0.09-0.21,0.13-0.34,0.13c-0.13,0-0.25-0.04-0.34-0.13
		s-0.14-0.21-0.14-0.37c0-0.15,0.05-0.27,0.14-0.36s0.21-0.14,0.34-0.14c0.13,0,0.25,0.05,0.34,0.14
		C23.93,0.75,23.98,0.88,23.98,1.03z M23.83,7.76h-0.65V2.59h0.65V7.76z"/>
	<path class="st0" d="M25.55,2.77c0.19-0.05,0.44-0.11,0.75-0.18c0.31-0.07,0.71-0.1,1.21-0.1c0.65,0,1.13,0.19,1.42,0.57
		c0.03-0.03,0.1-0.07,0.19-0.13s0.22-0.13,0.37-0.2c0.15-0.07,0.32-0.12,0.52-0.17c0.2-0.05,0.42-0.07,0.65-0.07
		c0.39,0,0.71,0.06,0.96,0.17c0.24,0.12,0.43,0.28,0.57,0.49c0.13,0.21,0.22,0.46,0.27,0.76c0.05,0.29,0.07,0.61,0.07,0.96v2.89
		h-0.65V5.08c0-0.34-0.01-0.64-0.04-0.89c-0.03-0.25-0.09-0.46-0.18-0.62c-0.09-0.16-0.22-0.29-0.38-0.37
		c-0.17-0.08-0.38-0.12-0.65-0.12c-0.2,0-0.38,0.02-0.54,0.05c-0.16,0.04-0.3,0.08-0.42,0.13c-0.12,0.05-0.22,0.11-0.29,0.16
		c-0.08,0.05-0.13,0.09-0.17,0.12c0.06,0.17,0.1,0.37,0.13,0.58s0.04,0.45,0.04,0.68v2.94h-0.65V5.08c0-0.34-0.01-0.64-0.04-0.89
		c-0.03-0.25-0.09-0.46-0.18-0.62c-0.09-0.16-0.22-0.29-0.4-0.37c-0.17-0.08-0.39-0.12-0.67-0.12c-0.31,0-0.58,0.02-0.79,0.05
		s-0.35,0.06-0.42,0.09v4.54h-0.65V2.77z"/>
	<path class="st0" d="M34.18,2.77c0.19-0.05,0.44-0.11,0.75-0.18c0.31-0.07,0.71-0.1,1.21-0.1c0.65,0,1.13,0.19,1.42,0.57
		c0.03-0.03,0.1-0.07,0.19-0.13s0.22-0.13,0.37-0.2c0.15-0.07,0.32-0.12,0.52-0.17c0.2-0.05,0.42-0.07,0.65-0.07
		c0.39,0,0.71,0.06,0.96,0.17c0.24,0.12,0.43,0.28,0.57,0.49c0.13,0.21,0.22,0.46,0.27,0.76c0.05,0.29,0.07,0.61,0.07,0.96v2.89
		H40.5V5.08c0-0.34-0.01-0.64-0.04-0.89c-0.03-0.25-0.09-0.46-0.18-0.62c-0.09-0.16-0.22-0.29-0.38-0.37
		c-0.17-0.08-0.38-0.12-0.65-0.12c-0.2,0-0.38,0.02-0.54,0.05c-0.16,0.04-0.3,0.08-0.42,0.13c-0.12,0.05-0.22,0.11-0.29,0.16
		c-0.08,0.05-0.13,0.09-0.17,0.12c0.06,0.17,0.1,0.37,0.13,0.58s0.04,0.45,0.04,0.68v2.94h-0.65V5.08c0-0.34-0.01-0.64-0.04-0.89
		c-0.03-0.25-0.09-0.46-0.18-0.62c-0.09-0.16-0.22-0.29-0.4-0.37c-0.17-0.08-0.39-0.12-0.67-0.12c-0.31,0-0.58,0.02-0.79,0.05
		s-0.35,0.06-0.42,0.09v4.54h-0.65V2.77z"/>
	<path class="st0" d="M42.5,5.17c0-0.45,0.07-0.85,0.2-1.19c0.13-0.34,0.3-0.62,0.51-0.84s0.45-0.39,0.72-0.5
		c0.27-0.11,0.55-0.17,0.83-0.17c0.63,0,1.14,0.21,1.52,0.62C46.65,3.5,46.84,4.14,46.84,5c0,0.05,0,0.11,0,0.16
		c0,0.05-0.01,0.1-0.01,0.15h-3.63c0.02,0.63,0.18,1.12,0.47,1.46s0.76,0.51,1.4,0.51c0.35,0,0.63-0.03,0.84-0.1
		c0.21-0.07,0.36-0.12,0.45-0.17l0.12,0.56c-0.09,0.05-0.27,0.12-0.52,0.19s-0.56,0.11-0.91,0.11c-0.45,0-0.84-0.07-1.16-0.2
		c-0.32-0.13-0.58-0.32-0.79-0.56c-0.21-0.24-0.36-0.52-0.45-0.85C42.55,5.92,42.5,5.56,42.5,5.17z M46.17,4.76
		c-0.01-0.54-0.14-0.96-0.38-1.26s-0.58-0.45-1.02-0.45c-0.23,0-0.44,0.05-0.62,0.14c-0.18,0.09-0.34,0.22-0.48,0.38
		c-0.14,0.16-0.24,0.34-0.32,0.54c-0.08,0.21-0.12,0.42-0.13,0.65H46.17z"/>
	<path class="st0" d="M50.05,2.49c0.21,0,0.42,0.02,0.6,0.05c0.19,0.03,0.32,0.07,0.4,0.1L50.92,3.2c-0.05-0.03-0.16-0.06-0.33-0.08
		c-0.16-0.03-0.38-0.05-0.65-0.05c-0.28,0-0.5,0.02-0.67,0.06s-0.28,0.07-0.33,0.1v4.53h-0.65V2.83c0.17-0.07,0.4-0.15,0.69-0.23
		C49.27,2.53,49.63,2.49,50.05,2.49z"/>
	<path class="st0" d="M53.09,7.3c0.37,0,0.68-0.06,0.92-0.18c0.24-0.12,0.37-0.33,0.37-0.62c0-0.14-0.02-0.26-0.07-0.36
		c-0.04-0.1-0.11-0.19-0.21-0.27C54,5.78,53.87,5.7,53.71,5.63c-0.16-0.07-0.37-0.16-0.61-0.26c-0.19-0.08-0.38-0.16-0.55-0.25
		c-0.17-0.08-0.33-0.18-0.46-0.29c-0.13-0.11-0.24-0.24-0.32-0.4s-0.12-0.34-0.12-0.56c0-0.42,0.16-0.76,0.47-1.02
		c0.32-0.26,0.75-0.39,1.3-0.39c0.35,0,0.65,0.03,0.88,0.09c0.23,0.06,0.39,0.11,0.49,0.16L54.64,3.3c-0.08-0.04-0.21-0.09-0.4-0.16
		c-0.19-0.07-0.47-0.1-0.83-0.1c-0.15,0-0.29,0.01-0.42,0.04c-0.13,0.03-0.25,0.08-0.35,0.14c-0.1,0.06-0.18,0.14-0.24,0.24
		c-0.06,0.1-0.09,0.21-0.09,0.36s0.03,0.26,0.08,0.36c0.05,0.1,0.13,0.19,0.24,0.27c0.1,0.08,0.23,0.15,0.38,0.21
		s0.32,0.14,0.51,0.22c0.2,0.08,0.39,0.16,0.58,0.24s0.34,0.18,0.49,0.3c0.14,0.12,0.25,0.26,0.34,0.42s0.13,0.37,0.13,0.62
		c0,0.47-0.17,0.82-0.52,1.06c-0.35,0.24-0.83,0.36-1.44,0.36c-0.45,0-0.8-0.04-1.04-0.12c-0.24-0.08-0.4-0.13-0.48-0.17L51.74,7
		c0.02,0.01,0.06,0.04,0.13,0.06c0.07,0.03,0.16,0.06,0.27,0.1c0.11,0.04,0.25,0.07,0.41,0.09S52.88,7.3,53.09,7.3z"/>
</g>
<g>
	<path class="st0" d="M4.48,13.44v1.54H3.69V13.5c0-0.44-0.23-0.62-0.5-0.62c-0.31-0.01-0.53,0.19-0.55,0.61v1.48H1.85V13.5
		c0-0.44-0.23-0.61-0.49-0.61c-0.28,0-0.57,0.13-0.57,0.64v1.46H0v-2.79h0.79v0.5c0.08-0.38,0.48-0.57,0.79-0.57
		c0.41,0,0.74,0.2,0.9,0.54c0.22-0.41,0.65-0.54,0.94-0.54C4.11,12.11,4.48,12.6,4.48,13.44z"/>
	<path class="st0" d="M7.93,12.19v2.79H7.15v-0.46c-0.12,0.37-0.56,0.52-0.84,0.52c-0.73,0-1.12-0.49-1.11-1.33v-1.54h0.79v1.45
		c0,0.44,0.26,0.64,0.53,0.64c0.28,0,0.63-0.15,0.63-0.65v-1.43H7.93z"/>
	<path class="st0" d="M8.72,10.69h0.79v4.29H8.72V10.69z"/>
	<path class="st0" d="M11.95,12.79h-0.59v2.19h-0.79v-2.19h-0.51v-0.61h0.51v-1.03h0.79v1.03h0.59V12.79z"/>
	<path class="st0" d="M12.36,11.21c0-0.26,0.23-0.47,0.5-0.47c0.28,0,0.5,0.2,0.5,0.47s-0.22,0.47-0.5,0.47
		C12.58,11.69,12.36,11.48,12.36,11.21z M12.46,12.19h0.79v2.79h-0.79V12.19z"/>
	<path class="st0" d="M18.52,13.44v1.54h-0.79V13.5c0-0.44-0.23-0.62-0.5-0.62c-0.31-0.01-0.53,0.19-0.55,0.61v1.48h-0.79V13.5
		c0-0.44-0.23-0.61-0.49-0.61c-0.28,0-0.57,0.13-0.57,0.64v1.46h-0.79v-2.79h0.79v0.5c0.08-0.38,0.48-0.57,0.79-0.57
		c0.41,0,0.74,0.2,0.9,0.54c0.22-0.41,0.65-0.54,0.94-0.54C18.16,12.11,18.52,12.6,18.52,13.44z"/>
	<path class="st0" d="M22.03,13.83h-2.11c0.08,0.32,0.35,0.5,0.73,0.5c0.28,0,0.56-0.11,0.73-0.31l0.46,0.46
		c-0.26,0.35-0.75,0.55-1.25,0.55c-0.86,0-1.49-0.59-1.49-1.45c0-0.91,0.68-1.47,1.49-1.47c0.8,0,1.45,0.56,1.45,1.42
		C22.04,13.61,22.04,13.71,22.03,13.83z M21.26,13.32c-0.02-0.33-0.3-0.53-0.65-0.53c-0.32,0-0.6,0.15-0.68,0.53H21.26z"/>
	<path class="st0" d="M25.54,10.69v4.29h-0.79v-0.35c-0.2,0.28-0.59,0.4-0.9,0.4c-0.72,0-1.37-0.56-1.37-1.46s0.65-1.46,1.37-1.46
		c0.32,0,0.7,0.12,0.9,0.4v-1.83H25.54z M24.73,13.58c0-0.43-0.36-0.72-0.73-0.72c-0.4,0-0.73,0.31-0.73,0.72
		c0,0.41,0.33,0.73,0.73,0.73C24.39,14.3,24.73,14,24.73,13.58z"/>
	<path class="st0" d="M26.23,11.21c0-0.26,0.23-0.47,0.5-0.47c0.28,0,0.5,0.2,0.5,0.47s-0.22,0.47-0.5,0.47
		C26.46,11.69,26.23,11.48,26.23,11.21z M26.34,12.19h0.79v2.79h-0.79V12.19z"/>
	<path class="st0" d="M30.8,12.19v2.79h-0.79v-0.35c-0.2,0.28-0.59,0.4-0.9,0.4c-0.72,0-1.37-0.56-1.37-1.46s0.65-1.46,1.37-1.46
		c0.32,0,0.7,0.12,0.9,0.4v-0.34H30.8z M29.99,13.58c0-0.43-0.36-0.72-0.73-0.72c-0.4,0-0.73,0.31-0.73,0.72
		c0,0.41,0.33,0.73,0.73,0.73C29.65,14.3,29.99,14,29.99,13.58z"/>
	<path class="st0" d="M35.91,10.69v4.29h-0.79v-0.35c-0.2,0.28-0.59,0.4-0.9,0.4c-0.72,0-1.37-0.56-1.37-1.46s0.65-1.46,1.37-1.46
		c0.32,0,0.7,0.12,0.9,0.4v-1.83H35.91z M35.11,13.58c0-0.43-0.36-0.72-0.73-0.72c-0.4,0-0.73,0.31-0.73,0.72
		c0,0.41,0.33,0.73,0.73,0.73C34.76,14.3,35.11,14,35.11,13.58z"/>
	<path class="st0" d="M39.47,13.83h-2.11c0.08,0.32,0.35,0.5,0.73,0.5c0.28,0,0.56-0.11,0.73-0.31l0.46,0.46
		c-0.26,0.35-0.75,0.55-1.25,0.55c-0.86,0-1.49-0.59-1.49-1.45c0-0.91,0.68-1.47,1.49-1.47c0.8,0,1.45,0.56,1.45,1.42
		C39.48,13.61,39.47,13.71,39.47,13.83z M38.69,13.32c-0.02-0.33-0.3-0.53-0.65-0.53c-0.32,0-0.6,0.15-0.68,0.53H38.69z"/>
	<path class="st0" d="M39.91,14.08h0.74c0,0.16,0.14,0.34,0.41,0.34c0.23,0,0.4-0.1,0.4-0.26c0-0.12-0.1-0.18-0.31-0.23l-0.37-0.09
		c-0.72-0.19-0.82-0.59-0.82-0.89c0-0.43,0.45-0.83,1.1-0.83c0.51,0,1.11,0.25,1.1,0.91h-0.75c0-0.19-0.16-0.29-0.34-0.29
		c-0.18,0-0.32,0.09-0.32,0.23c0,0.13,0.12,0.2,0.28,0.24l0.46,0.12c0.67,0.18,0.76,0.6,0.76,0.83c0,0.59-0.6,0.88-1.18,0.88
		C40.49,15.03,39.92,14.7,39.91,14.08z"/>
	<path class="st0" d="M42.77,11.21c0-0.26,0.23-0.47,0.5-0.47c0.28,0,0.5,0.2,0.5,0.47s-0.22,0.47-0.5,0.47
		C43,11.69,42.77,11.48,42.77,11.21z M42.88,12.19h0.79v2.79h-0.79V12.19z"/>
	<path class="st0" d="M47.34,12.19v2.41c0,1.22-0.62,1.79-1.61,1.79c-0.6,0-1.12-0.34-1.36-0.85l0.65-0.28
		c0.12,0.25,0.41,0.43,0.71,0.43c0.5,0,0.82-0.28,0.82-1.01v-0.04c-0.2,0.27-0.59,0.4-0.9,0.4c-0.72,0-1.37-0.56-1.37-1.46
		s0.65-1.46,1.37-1.46c0.32,0,0.7,0.13,0.9,0.4v-0.33H47.34z M46.53,13.58c0-0.43-0.36-0.72-0.73-0.72c-0.4,0-0.73,0.31-0.73,0.72
		c0,0.41,0.33,0.73,0.73,0.73C46.19,14.3,46.53,14,46.53,13.58z"/>
	<path class="st0" d="M50.87,13.44v1.54h-0.79v-1.45c0-0.44-0.26-0.64-0.53-0.64c-0.28,0-0.63,0.15-0.63,0.66v1.43h-0.79v-2.79h0.79
		v0.47c0.12-0.38,0.56-0.54,0.84-0.54C50.49,12.11,50.88,12.6,50.87,13.44z"/>
	<path class="st0" d="M54.39,13.83h-2.11c0.08,0.32,0.35,0.5,0.73,0.5c0.28,0,0.56-0.11,0.73-0.31l0.46,0.46
		c-0.26,0.35-0.75,0.55-1.25,0.55c-0.86,0-1.49-0.59-1.49-1.45c0-0.91,0.68-1.47,1.49-1.47c0.8,0,1.45,0.56,1.45,1.42
		C54.4,13.61,54.39,13.71,54.39,13.83z M53.61,13.32c-0.02-0.33-0.3-0.53-0.65-0.53c-0.32,0-0.6,0.15-0.68,0.53H53.61z"/>
	<path class="st0" d="M57.05,12.2l-0.18,0.75c-0.17-0.09-0.31-0.1-0.4-0.1c-0.4,0-0.68,0.37-0.68,1.17v0.96h-0.79v-2.79h0.78v0.59
		c0.16-0.47,0.47-0.67,0.82-0.67C56.76,12.11,56.93,12.14,57.05,12.2z"/>
</g>
</svg>
